# xmcd
#
# Track frame offsets: 
#        150
#        16162
#        23802
#        33382
#        44810
#        53940
#        63112
#        71852
#        81920
#        91495
#        100800
#        109815
#        116720
#        123672
#        129820
#        140710
#        147815
#        155592
#        162735
#        172500
#        180187
#        187177
#        193600
#        201077
#        209307
#        218875
#        243635
#        251047
#        259377
#        265927
#
# Disc length: 3740 seconds
#
# Revision: 0
# Processed by: cddbd v1.5.2PL0 Copyright (c) Steve Scherf et al.
# Submitted via: ExactAudioCopyFreeDBPlugin 1.0
#
DISCID=c40e9a1e
DTITLE=森繁久彌 他 - 明治大正の唄 下
DYEAR=1868
DGENRE=Pop
TTITLE0=森繁久彌 - 船頭小唄
TTITLE1=久保幸江 - 籠の鳥
TTITLE2=桜井敏雄 - 復興節
TTITLE3=石田幸松 - のんき節
TTITLE4=豆千代 - ストトン節
TTITLE5=こまどり姉妹 - 月は無情
TTITLE6=都家かつ江 - まっくろけ節
TTITLE7=赤坂小梅 - 青島節
TTITLE8=都家かつ江 - ドンドン節
TTITLE9=豆千代 - 奈良丸くずし
TTITLE10=日暮千代子 - ギッチョンチョン
TTITLE11=浅井丸留子 - さいこどんどん
TTITLE12=小唄徳太郎 - 法界節
TTITLE13=関おひろ - 有明節
TTITLE14=浅草ゆめ子 - 東雲節
TTITLE15=藤山一郎 - 荒城の月
TTITLE16=森繁久彌 - 人を恋うる歌
TTITLE17=コロムビア合唱団 - 元寇
TTITLE18=初代コロムビアローズ - 真白き富士の嶺
TTITLE19=浅井丸留子 - 梅ケ枝節
TTITLE20=関おひろ - お江戸日本橋
TTITLE21=本條秀太郎 - ごくない節
TTITLE22=鈴木やすし - アイドントノー
TTITLE23=コロムビア演歌隊 - 乃木将軍の歌
TTITLE24=森繁久彌 - 鳴呼玉杯
TTITLE25=桜井敏雄 - 千葉心中 (家出の巻)
TTITLE26=森繁久彌 - 水師営の会見
TTITLE27=初代コロムビアローズ - 恋の鳥
TTITLE28=南地みつ春 - コロッケの唄
TTITLE29=高峰三枝子 - 宵待草
EXTD=
EXTT0=
EXTT1=
EXTT2=
EXTT3=
EXTT4=
EXTT5=
EXTT6=
EXTT7=
EXTT8=
EXTT9=
EXTT10=
EXTT11=
EXTT12=
EXTT13=
EXTT14=
EXTT15=
EXTT16=
EXTT17=
EXTT18=
EXTT19=
EXTT20=
EXTT21=
EXTT22=
EXTT23=
EXTT24=
EXTT25=
EXTT26=
EXTT27=
EXTT28=
EXTT29=
PLAYORDER=
